<svg xmlns="http://www.w3.org/2000/svg" width="66.22mm" height="10.58mm" viewBox="0 0 187.7 30"><defs><style>.cls-1{fill:#54b6e7;}.cls-2{fill:#e7358a;}.cls-3{fill:#1f7bbe;}.cls-4{fill:#8bcfef;}.cls-5{fill:#de7fb1;}.cls-6{fill:#025ea5;}</style></defs><title>madeherenow-logo</title><g id="Layer_1" data-name="Layer 1"><path d="M56.7,22.4V11.7L52.3,22.4h-.4L47.5,11.7V22.4h-1v-12H48l4.1,10,4.1-10h1.5v12Z" transform="translate(0 0)"/><path d="M69.4,22.4l-1.2-3H61.8l-1.2,3H59.4l4.9-12h1.3l4.9,12ZM65.1,11.5l-2.8,7H68Z" transform="translate(0 0)"/><path d="M84.8,22.4v-12h7.6v.9H85.8v4.4h6.5v.9H85.8v4.8h6.6v.9Z" transform="translate(0 0)"/><path d="M108.3,22.4V16.7h-7.6v5.7h-1v-12h1v5.4h7.6V10.4h1v12Z" transform="translate(0 0)"/><path d="M112.3,22.4v-12h7.6v.9h-6.6v4.4h6.5v.9h-6.5v4.8h6.6v.9Z" transform="translate(0 0)"/><path d="M129.5,22.4l-3.4-5h-2.6v5h-1v-12H127a3.41,3.41,0,0,1,3.7,3.5,3.32,3.32,0,0,1-3.3,3.5l3.5,5Zm0-8.5a2.55,2.55,0,0,0-2.7-2.6h-3.4v5.2h3.4A2.55,2.55,0,0,0,129.5,13.9Z" transform="translate(0 0)"/><path d="M133.1,22.4v-12h7.6v.9h-6.6v4.4h6.5v.9h-6.5v4.8h6.6v.9Z" transform="translate(0 0)"/><path d="M156.5,22.4,149,12.1V22.4h-1v-12h1l7.5,10.2V10.4h1v12Z" transform="translate(0 0)"/><path d="M160.1,16.4c0-3.5,2.3-6.2,5.8-6.2s5.8,2.7,5.8,6.2-2.3,6.2-5.8,6.2S160.1,19.9,160.1,16.4Zm10.6,0c0-3-1.9-5.3-4.8-5.3s-4.8,2.2-4.8,5.3,1.9,5.3,4.8,5.3S170.7,19.4,170.7,16.4Z" transform="translate(0 0)"/><path d="M183.1,22.4l-2.9-10.3-2.9,10.3h-1.2l-3.4-12h1.2L176.8,21l3-10.6h.9L183.6,21l2.9-10.6h1.2l-3.4,12Z" transform="translate(0 0)"/><path d="M72.4,22.4v-12h3.8a5.86,5.86,0,0,1,6.1,6,5.8,5.8,0,0,1-6.1,6Zm8.8-6a4.8,4.8,0,0,0-5-5.1H73.4V21.4h2.8A4.67,4.67,0,0,0,81.2,16.4Z" transform="translate(0 0)"/><path class="cls-1" d="M15,0c.44,0,.88,0,1.31.07,1.6,1.32,12,10.32,13.26,11.42A15.06,15.06,0,0,1,30,15a15.49,15.49,0,0,1-.27,2.82l-5-5.32L18.4,6,12.86.17A15.07,15.07,0,0,1,15,0Z" transform="translate(0 0)"/><path class="cls-1" d="M.24,17.57,8.93,28.71A15,15,0,0,1,.24,17.57Z" transform="translate(0 0)"/><path class="cls-2" d="M18.41,29.59A14.67,14.67,0,0,1,15,30a14.87,14.87,0,0,1-4.69-.76l-9.82-18A14.37,14.37,0,0,1,1.3,8.92Z" transform="translate(0 0)"/><path class="cls-3" d="M10.25,29.22a14.28,14.28,0,0,1-1.57-.63L.26,17.74A15.43,15.43,0,0,1,0,15a14.92,14.92,0,0,1,.49-3.74Z" transform="translate(0 0)"/><path class="cls-4" d="M4.81,4c2.59,2.69,6,6.34,9.49,10l8.41,13.85a14.88,14.88,0,0,1-4.28,1.74L1.3,8.92A15.07,15.07,0,0,1,4.81,4Z" transform="translate(0 0)"/><path class="cls-4" d="M16.4.07A15,15,0,0,1,29.54,11.38Z" transform="translate(0 0)"/><path class="cls-4" d="M25.84,25.35,20.4,12.8l4.3-.2,5,5.31A14.92,14.92,0,0,1,25.84,25.35Z" transform="translate(0 0)"/><path class="cls-1" d="M7.17,2.22,14.3,14l-2.7-2.9L4.86,4A15.09,15.09,0,0,1,7.17,2.22Z" transform="translate(0 0)"/><path class="cls-2" d="M13,.16,16.6,4l3.8,8.8L7.47,2A14.87,14.87,0,0,1,13,.16Z" transform="translate(0 0)"/><path class="cls-5" d="M22.64,27.89,14.2,14,25.4,25.79A14.47,14.47,0,0,1,22.64,27.89Z" transform="translate(0 0)"/><path class="cls-6" d="M20.3,12.8l5.54,12.55c-.15.15-.29.3-.44.44L14.3,14,7.17,2.22,7.47,2Z" transform="translate(0 0)"/></g></svg>